<?xml version="1.0" encoding="UTF-8" standalone="no"?>
<!-- Created with Inkscape (http://www.inkscape.org/) -->

<svg
   width="210mm"
   height="297mm"
   viewBox="0 0 210 297"
   version="1.1"
   id="svg5"
   sodipodi:docname="archbird.svg"
   inkscape:version="1.2.2 (1:1.2.2+202305151914+b0a8486541)"
   xmlns:inkscape="http://www.inkscape.org/namespaces/inkscape"
   xmlns:sodipodi="http://sodipodi.sourceforge.net/DTD/sodipodi-0.dtd"
   xmlns="http://www.w3.org/2000/svg"
   xmlns:svg="http://www.w3.org/2000/svg">
  <sodipodi:namedview
     id="namedview7"
     pagecolor="#ffffff"
     bordercolor="#666666"
     borderopacity="1.0"
     inkscape:showpageshadow="2"
     inkscape:pageopacity="0.0"
     inkscape:pagecheckerboard="0"
     inkscape:deskcolor="#d1d1d1"
     inkscape:document-units="mm"
     showgrid="false"
     inkscape:zoom="1.4142136"
     inkscape:cx="210.36427"
     inkscape:cy="306.53079"
     inkscape:window-width="1920"
     inkscape:window-height="973"
     inkscape:window-x="0"
     inkscape:window-y="32"
     inkscape:window-maximized="1"
     inkscape:current-layer="text1829-1"
     showguides="true">
    <sodipodi:guide
       position="91.94671,242.17252"
       orientation="0,-1"
       id="guide2381"
       inkscape:locked="false" />
    <sodipodi:guide
       position="92.806726,240.99505"
       orientation="0,-1"
       id="guide2383"
       inkscape:locked="false" />
  </sodipodi:namedview>
  <defs
     id="defs2" />
  <g
     inkscape:label="Layer 1"
     inkscape:groupmode="layer"
     id="layer1">
    <text
       xml:space="preserve"
       style="font-style:normal;font-weight:normal;font-size:10.5833px;line-height:1.25;font-family:sans-serif;fill:#000000;fill-opacity:1;stroke:none;stroke-width:0.264583"
       x="48.966457"
       y="89.884842"
       id="text1829"><tspan
         sodipodi:role="line"
         id="tspan1827"
         style="font-style:normal;font-variant:normal;font-weight:800;font-stretch:normal;font-family:'Ubuntu Sans';-inkscape-font-specification:'Ubuntu Sans Ultra-Bold';stroke-width:0.264583"
         x="48.966457"
         y="89.884842">Archbird</tspan></text>
    <g
       aria-label="A"
       id="text1829-1"
       style="font-size:10.5833px;line-height:1.25;stroke-width:0.264583">
      <path
         d="m 89.12245,57.734695 c 0.366887,-1.051274 0.709081,-2.003771 1.02658,-2.85749 0.324555,-0.85372 0.638526,-1.64394 0.941914,-2.37066 0.310443,-0.726719 0.627942,-1.428745 0.952497,-2.106076 h 0.788455 0.788456 c 0.239888,0.507998 0.476248,1.030107 0.709081,1.566328 0.232833,0.536221 0.465665,1.100663 0.698498,1.693328 0.232833,0.585609 0.472721,1.213552 0.719664,1.883827 0.253999,0.670276 0.518582,1.400524 0.793748,2.190743 h -1.767411 c -0.178918,-0.555717 -0.408973,-1.161698 -0.603537,-1.730425 0,0 -0.739095,0.335483 -1.375328,0.335483 -0.660173,0 -1.373174,-0.32324 -1.373174,-0.32324 -0.20172,0.574564 -0.419753,1.178842 -0.584949,1.718182 z m 2.635241,-2.899824 c 0,0 0.544351,0.267154 1.043387,0.267154 0.569237,0 1.041523,-0.267154 1.041523,-0.267154 -0.112888,-0.317499 -0.222249,-0.620886 -0.328082,-0.910163 -0.105833,-0.289277 -0.208138,-0.55386 -0.306916,-0.793748 -0.09172,-0.239888 -0.17286,-0.451554 -0.243415,-0.634998 -0.07055,-0.183444 -0.127,-0.328082 -0.169333,-0.433915 -0.03528,0.105833 -0.0882,0.250471 -0.15875,0.433915 -0.0635,0.183444 -0.144639,0.39511 -0.243416,0.634998 -0.09172,0.239888 -0.194026,0.504471 -0.306915,0.793748 -0.105833,0.289277 -0.215194,0.592664 -0.328083,0.910163 z"
         style="font-weight:800;font-family:'Ubuntu Sans';-inkscape-font-specification:'Ubuntu Sans Ultra-Bold'"
         id="path2329"
         sodipodi:nodetypes="ccccccscccccsccccscscsccccc" />
    </g>
    <rect
       style="opacity:1;fill:#ffffff;stroke-width:1.38151;stroke-linejoin:bevel;paint-order:markers fill stroke"
       id="rect2041"
       width="0.7729668"
       height="7.8229356"
       x="149.47905"
       y="-93.128868"
       transform="rotate(90)" />
    <text
       xml:space="preserve"
       style="font-style:normal;font-weight:normal;font-size:7.91376px;line-height:1.25;font-family:sans-serif;fill:#000000;fill-opacity:1;stroke:none;stroke-width:0.197844"
       x="50.734524"
       y="82.667007"
       id="text2108"><tspan
         sodipodi:role="line"
         id="tspan2106"
         style="stroke-width:0.197844"
         x="50.734524"
         y="82.667007">✔</tspan></text>
    <text
       xml:space="preserve"
       style="font-style:normal;font-weight:normal;font-size:10.5833px;line-height:1.25;font-family:sans-serif;fill:#000000;fill-opacity:1;stroke:none;stroke-width:0.264583"
       x="45.814045"
       y="175.70981"
       id="text1829-2"><tspan
         sodipodi:role="line"
         id="tspan1827-8"
         style="font-style:normal;font-variant:normal;font-weight:800;font-stretch:normal;font-family:'Ubuntu Sans';-inkscape-font-specification:'Ubuntu Sans Ultra-Bold';stroke-width:0.264583"
         x="45.814045"
         y="175.70981">archbird</tspan></text>
    <text
       xml:space="preserve"
       style="font-style:normal;font-weight:normal;font-size:7.91376px;line-height:1.25;font-family:sans-serif;fill:#000000;fill-opacity:1;stroke:none;stroke-width:0.197844"
       x="46.149643"
       y="168.00073"
       id="text2108-9"><tspan
         sodipodi:role="line"
         id="tspan2106-7"
         style="stroke-width:0.197844"
         x="46.149643"
         y="168.00073">✔</tspan></text>
    <text
       xml:space="preserve"
       style="font-style:normal;font-weight:normal;font-size:10.5833px;line-height:1.25;font-family:sans-serif;fill:#000000;fill-opacity:1;stroke:none;stroke-width:0.264583"
       x="106.85438"
       y="146.31949"
       id="text1829-2-3"><tspan
         sodipodi:role="line"
         id="tspan1827-8-6"
         style="font-style:normal;font-variant:normal;font-weight:800;font-stretch:normal;font-family:'Ubuntu Sans';-inkscape-font-specification:'Ubuntu Sans Ultra-Bold';stroke-width:0.264583"
         x="106.85438"
         y="146.31949">a</tspan></text>
    <text
       xml:space="preserve"
       style="font-style:normal;font-weight:normal;font-size:7.91376px;line-height:1.25;font-family:sans-serif;fill:#000000;fill-opacity:1;stroke:none;stroke-width:0.197844"
       x="127.30162"
       y="166.43111"
       id="text2108-9-1"><tspan
         sodipodi:role="line"
         id="tspan2106-7-2"
         style="stroke-width:0.197844"
         x="127.30162"
         y="166.43111">✔</tspan></text>
  </g>
</svg>
